<?xml version="1.0" encoding="UTF-8" standalone="no"?>
<svg
   width="759.73438"
   height="370.97726"
   viewBox="0 0 759.73438 370.97726"
   version="1.1"
   id="svg4"
   sodipodi:docname="elo_logo3.svg"
   inkscape:version="1.3.2 (091e20e, 2023-11-25, custom)"
   xmlns:inkscape="http://www.inkscape.org/namespaces/inkscape"
   xmlns:sodipodi="http://sodipodi.sourceforge.net/DTD/sodipodi-0.dtd"
   xmlns="http://www.w3.org/2000/svg"
   xmlns:svg="http://www.w3.org/2000/svg">
  <defs
     id="defs4" />
  <sodipodi:namedview
     id="namedview4"
     pagecolor="#ffffff"
     bordercolor="#000000"
     borderopacity="0.25"
     inkscape:showpageshadow="2"
     inkscape:pageopacity="0.0"
     inkscape:pagecheckerboard="0"
     inkscape:deskcolor="#d1d1d1"
     inkscape:zoom="0.5"
     inkscape:cx="222"
     inkscape:cy="-61"
     inkscape:window-width="1920"
     inkscape:window-height="974"
     inkscape:window-x="-11"
     inkscape:window-y="-11"
     inkscape:window-maximized="1"
     inkscape:current-layer="svg4" />
  <path
     d="m 69.665564,67.577279 c -10.428,2.783 -18.759,7.553 -23.472,13.438 -1.084,1.354 0.041,0.597 2.5,-1.683 6.367,-5.903 13.404,-9.134 25.972,-11.928 3.025,-0.672 4.375,-1.239 3,-1.259 -1.375,-0.02 -4.975,0.624 -8,1.432 m 77.999996,5.73 c 11.799,4.725 22.424,8.579 22.751,8.253 0.507,-0.508 -19.442,-8.268 -23.251,-9.044 -2.751,-0.56 -2.709,-0.495 0.5,0.791 m 512.36746,18.42174 c -9.472,1.692 -23.27785,7.62319 -31.53585,12.596191 -9.163,5.519 -20.375,16.709 -25.753,25.705 -4.324,7.234 -8.378,17.314 -10.738,26.704 -2.585,10.285 -2.593,33.449 -0.017,47.883 3.195,17.899 0.752,34.091 -7.77,51.495 -3.716,7.59 -3.86861,8.73707 -2.07461,8.33107 6.697,-1.514 15.517,-2.29 26.244,-2.31 12.873,-0.024 24.362,1.893 44.277,7.387 8.531,2.354 10.724,2.571 21.5,2.124 13.399,-0.555 21.455,-2.524 33.263,-8.132 26.542,-12.604 41.91257,-35.23055 49.49657,-64.38855 2.05,-7.885 2.86073,-11.64162 2.80673,-27.41162 -0.807,-12.276 -1.36211,-19.62004 -3.80911,-27.70604 -7.948,-26.27 -29.16095,-44.778461 -44.56904,-49.501661 -9.52589,-3.05311 -16.68415,-5.27113 -28.06315,-4.95513 -9.35,-0.184 -19.52529,1.47945 -22.37929,1.98845 m -552.68871,3.66255 c -0.856,1.222 -1.557,3.276 -1.557,4.565 0,2.719001 1.667,6.212001 2.964,6.212001 1.228,0 4.036,-2.91 4.036,-4.182 0,-0.572 0.72209,1.14995 -0.36691,2.44795 -1.689,2.015 -4.86704,1.69906 -5.72404,0.41906 -1.277,-1.905 -1.07503,-8.053991 0.15997,-11.301991 1.277,-3.357 7.90993,-1.67801 9.17193,1.77599 0.552,1.512 -2.36295,3.74899 -2.31995,3.02499 0.128,-2.128 -1.41196,-6.00159 -2.93496,-6.00159 -0.775,0 -2.57304,1.81759 -3.42904,3.04059 m 87.399,4.327 c 3.55,3.822001 6.66,7.175001 6.91,7.450001 0.808,0.889 -1.141,-2.423 -3.049,-5.181 -1.02,-1.475 -3.759,-4.152001 -6.086,-5.950001 -3.635,-2.809 -3.321,-2.29 2.225,3.681 m -65.42232,-0.008 c -0.91,1.006001 -1.53751,2.401711 -1.52951,3.183711 0.008,0.781 0.91545,0.0308 1.61045,-1.34417 0.696,-1.375001 3.73726,-3.285721 4.44274,-3.681671 3.54341,-1.98874 6.93498,5.409291 4.99798,7.938291 l -4.54984,6.98342 -5.08359,-1.46144 c -2.138,-2.685 -2.93407,-4.17112 -1.24307,-1.01112 1.371,2.561 5.34816,1.36524 7.26416,-1.37176 2.91569,-1.79285 4.46958,-10.585341 1.5218,-10.832911 -1.99361,-1.72708 -4.83401,-0.77861 -6.72401,1.31039 m -88.356786,3.407261 c 1.251,2.476 7.475,7.986 12.024,10.645 4.977,2.908 3.552,1.196 -1.936,-2.325 -2.765,-1.774 -6.412,-4.859 -8.103,-6.854 -1.692,-1.995 -2.585,-2.655 -1.985,-1.466 m -2.886,6.843 c -1.386,3.645 -1.101,4.593 0.378,1.258 l 1.213,-2.736 5.392,4.051 c 4.808,3.613 10.336,7.077 9.019,5.652 -0.62,-0.671 -12.038,-9.048 -13.752,-10.09 -0.82,-0.498 -1.596,0.144 -2.25,1.865 m 164.877996,3.952 c 0.879,2.972 1.778,5.222 1.999,5.002 0.562,-0.563 -1.991,-9.413 -2.873,-9.958 -0.398,-0.246 -0.005,1.984 0.874,4.956 m -167.330996,2.287 c -0.822,2.141 7.308,10.256 10.275,10.256 3.273,0 8.572,2.677 13.724,6.935 2.706,2.236 5.365,4.065 5.91,4.065 0.545,0 -0.122,-0.755 -1.481,-1.679 -1.36,-0.923 -3.952,-2.949 -5.76,-4.502 -3.581,-3.075 -9.381,-5.819 -12.301,-5.819 -2.862,0 -10.027,-7.061 -9.345,-9.21 0.731,-2.304 -0.141,-2.343 -1.022,-0.046 m 22.955,0.838 c 2.432,1.921 13.579,7.674 14.015,7.233 0.171,-0.173 -3.362,-2.227 -7.852,-4.564 -4.489,-2.337 -7.263,-3.538 -6.163,-2.669 m -2,2.997 c 4.651,3.687 30.496,15.466 33.776,15.394 0.673,-0.015 -3.082,-1.735 -8.346,-3.822 -5.263,-2.088 -13.588,-5.902 -18.5,-8.476 -4.911,-2.575 -8.03,-3.968 -6.93,-3.096 m 613.904996,6.086 c -5.504,1.139 -12.706,12.231 -16.253,25.029 -5.9,21.29 -5.393,55.771 1.07,72.806 1.986,5.234 6.581,11.18 9.478,12.264 5.403,2.023 6.022,2.04 9.96,0.277 7.227,-3.236 13.895,-16.337 16.849,-33.106 4.178,-23.718 2.122,-53.183 -4.65,-66.624 -2.302,-4.568 -7.427,-10.303 -9.228,-10.325 -0.622,-0.007 -2.031,-0.18 -3.131,-0.384 -1.1,-0.204 -2.943,-0.175 -4.095,0.063 m -468.799,4.768 c -1.094,2.032 -3.347,4.048 -5.716,5.117 -2.151,0.969 -3.724,1.949 -3.497,2.176 1.032,1.032 8.294,-3.857 9.954,-6.7 1.017,-1.74 1.672,-3.341 1.457,-3.556 -0.216,-0.215 -1.204,1.118 -2.198,2.963 m -161.022996,-0.567 c -0.824,1.333 2.172,3.532 10.917,8.015 4.4,2.255 9.575,5.006 11.5,6.113 3.61,2.075 20.961,8.695 38.499996,14.689 6.085,2.079 12.741,3.601 17,3.888 15.73,1.058 20.946,1.174 18.5,0.41 -1.375,-0.43 -6.366,-0.826 -11.09,-0.881 -4.847,-0.057 -11.844,-0.932 -16.057,-2.01 -9.241,-2.363 -42.097996,-14.349 -46.852996,-17.091 -1.925,-1.11 -7.437,-4.043 -12.25,-6.519 -4.812,-2.475 -8.75,-4.946 -8.75,-5.49 0,-2.653 8.983,0.315 14.193,4.689 5.328,4.474 11.355,7.305 15.307,7.189 2.406,-0.07 2.122,-0.259 -1.431,-0.956 -2.438,-0.478 -6.862,-2.567 -9.833,-4.641 -10.612,-7.409 -17.943,-10.172 -19.653,-7.405 m -8.057,4.084 c -0.839,1.623 -1.526,3.634 -1.526,4.47 0,0.835 3.262,3.703 7.25,6.373 8.516,5.701 9.75,6.453 9.75,5.946 0,-0.209 -3.591,-2.823 -7.981,-5.809 -4.389,-2.987 -7.989,-5.971 -8,-6.633 -0.026,-1.666 2.156,-6.297 2.967,-6.297 0.366,0 1.756,1.168 3.09,2.595 2.542,2.722 7.798,5.865 8.549,5.113 0.242,-0.241 -0.872,-0.982 -2.475,-1.646 -1.603,-0.664 -4.177,-2.525 -5.72,-4.135 -3.49,-3.643 -4.01,-3.64 -5.904,0.023 m 35.974,3.9 c 2.803,1.202 10.929,2.167 9.871,1.173 -0.479,-0.451 -3.346,-1.092 -6.371,-1.425 -3.409,-0.375 -4.74,-0.279 -3.5,0.252 m 31.499996,0.055 c 0.825,0.478 3.525,1.136 6,1.462 2.951,0.388 3.639,0.311 2,-0.223 -4.136,-1.349 -9.664,-2.205 -8,-1.239 m 21,0.583 c 3.575,0.757 8.975,1.623 12,1.924 l 5.5,0.546 -6.5,-1.36 c -3.575,-0.748 -8.975,-1.614 -12,-1.923 l -5.5,-0.563 6.5,1.376 m -70.246996,3.503 c 4.521,2.756 15.027,8.013 15.968,7.99 0.899,-0.022 -17.675,-9.983 -18.604,-9.977 -0.339,0.002 0.847,0.896 2.636,1.987 m 119.746996,-0.991 -5,0.686 4.691,0.157 c 2.58,0.086 4.969,-0.293 5.309,-0.843 0.34,-0.55 0.479,-0.929 0.309,-0.843 -0.17,0.087 -2.559,0.466 -5.309,0.843 m -52.734,0.956 c 1.247,0.545 5.297,1.209 9,1.474 6.086,0.437 6.253,0.402 1.734,-0.357 -12.306,-2.069 -13.094,-2.151 -10.734,-1.117 m 26.01,-0.223 c 2.352,0.212 5.952,0.209 8,-0.006 2.048,-0.215 0.124,-0.388 -4.276,-0.384 -4.4,0.003 -6.076,0.179 -3.724,0.39 m 38.724,1.862 -7,1.324 6.473,-0.534 c 3.559,-0.294 7.159,-0.937 8,-1.429 1.844,-1.081 1.428,-1.045 -7.473,0.639 m -103.999996,0.85 c 2.2,0.722 6.7,2.711 10,4.421 3.3,1.71 6.675,3.079 7.5,3.042 1.333,-0.059 1.333,-0.127 0,-0.612 -0.825,-0.301 -4.999,-2.291 -9.276,-4.421 -4.277,-2.131 -9.01435,-2.83086 -10.23735,-2.79386 -1.497,0.045 -0.67865,-0.51814 2.01335,0.36386 m 71.249996,1.299 c 4.538,0.185 11.962,0.185 16.5,0 4.538,-0.185 0.825,-0.337 -8.25,-0.337 -9.075,0 -12.788,0.152 -8.25,0.337 m -49.667,2.615 c 0.23,0.198 2.667,0.619 5.417,0.937 3.217,0.372 4.287,0.269 3,-0.289 -1.911,-0.828 -9.284,-1.395 -8.417,-0.648 m 12.917,2.565 c 1.375,0.413 3.85,1.031 5.5,1.373 l 3,0.621 -3,-1.414 c -1.65,-0.778 -4.125,-1.395 -5.5,-1.373 l -2.5,0.041 2.5,0.752 m -63.999996,0.556 c 0,0.275 4.05,2.534 9,5.02 4.95,2.486 9,4.295 9,4.02 0,-0.275 -4.05,-2.534 -9,-5.02 -4.95,-2.486 -9,-4.295 -9,-4.02 m -4.5,2.014 c 2.579,2.088 15.976,9.512 17.123,9.488 0.482,-0.01 -1.573,-1.369 -4.568,-3.02 -2.995,-1.65 -7.495,-4.145 -10,-5.544 -2.505,-1.399 -3.655,-1.815 -2.555,-0.924 m 60.466996,0.011 c 4.106,0.789 10.997,2.573 15.311,3.965 4.315,1.391 8.605,2.494 9.534,2.451 2.016,-0.094 2.265,-0.003 -10.312,-3.789 -5.5,-1.656 -12.7,-3.247 -16,-3.536 l -5.999996,-0.525 7.466996,1.434 m 25.033,2.473 c 3.293,1.083 6,1.206 5.999,0.272 -0.001,-0.412 -1.914,-0.827 -4.25,-0.922 -3.447,-0.139 -3.777,-0.017 -1.749,0.65 m 40.789,-0.237 c 3.459,0.196 8.859,0.195 12,-0.003 3.141,-0.198 0.311,-0.358 -6.289,-0.356 -6.6,0.002 -9.17,0.164 -5.711,0.359 m 22.711,1.025 c -2.233,1.255 -5.811,1.735 -14,1.876 -6.05,0.105 -13.925,0.655 -17.5,1.221 l -6.5,1.03 8,-0.665 c 4.4,-0.366 11.746,-0.561 16.325,-0.433 6.462,0.18 9.316,-0.206 12.75,-1.725 3.62,-1.601 4.425,-1.695 4.425,-0.514 0,0.794 -0.624,1.444 -1.386,1.444 -0.762,0 -2.674,0.672 -4.25,1.494 -1.575,0.821 -4.37173,2.53351 -6.88673,2.53751 -2.514,0.003 -7.16171,-0.11453 -9.73171,0.76147 -3.67,1.25 -7.66892,2.50711 -19.43492,2.23911 -8.237,-0.188 -14.47664,-1.22609 -13.53064,-0.85209 3.539,1.398 28.85503,0.39276 33.28103,-1.16824 2.338,-0.825 6.14997,-1.01176 8.54397,-1.01176 7.163,0 16.45,-4.484 14.804,-7.147 -0.723,-1.17 -1.439,-1.037 -4.909,0.913 m -156.974996,2.984 c 5.563,8.719 15.595,17.753 24.949,22.467 5.422,2.732 4.418,1.851 -4.584,-4.026 -8.164,-5.33 -14.657,-11.449 -18.506,-17.441 -1.325,-2.062 -2.68,-3.75 -3.012,-3.75 -0.331,0 0.188,1.238 1.153,2.75 m 49.558,-2.34 c 0.7,0.688 15.191996,5.594 16.340996,5.532 1.427,-0.078 -13.515996,-5.808 -15.340996,-5.884 -0.779,-0.032 -1.229,0.126 -1,0.352 m 56.666996,2.322 c 2.337,0.211 6.163,0.211 8.5,0 2.337,-0.21 0.425,-0.383 -4.25,-0.383 -4.675,0 -6.587,0.173 -4.25,0.383 m -79.749996,3.721 c 0,1.215 24.08,10.548 27,10.465 0.825,-0.024 -1.747,-1.129 -5.717,-2.456 -3.969,-1.326 -10.219,-3.773 -13.888,-5.437 -6.977,-3.163 -7.395,-3.309 -7.395,-2.572 m 124.499996,2.203 c -5.336,0.427 -14.771,2.406 -14.199,2.978 0.251,0.251 2.423,0.012 4.827,-0.531 2.405,-0.543 6.987,-1.209 10.183,-1.479 5.507,-0.466 5.795,-0.379 5.5,1.667 -0.171,1.187 -1.436,2.726 -2.811,3.419 -1.71,0.862 -1.97,1.265 -0.821,1.275 2.424,0.022 4.821,-2.741 4.821,-5.556 0,-1.711 -0.518,-2.379 -1.75,-2.261 -0.962,0.093 -3.55,0.312 -5.75,0.488 m -73,0.842 c 0.55,0.187 6.175,0.524 12.5,0.748 6.325,0.224 10.15,0.088 8.5,-0.301 -2.933,-0.693 -22.975,-1.119 -21,-0.447 m -25.499996,2.935 c 1.925,0.778 4.175,1.435 5,1.461 2.631,0.08 -1.033,-1.584 -5,-2.27 l -3.5,-0.606 3.5,1.415 m 51.977996,-0.245 c 1.988,0.735 31.523,0.98 30.799,0.255 -0.224,-0.224 -7.678,-0.533 -16.565,-0.687 -8.887,-0.154 -15.292,0.04 -14.234,0.432 m 28.522,6.812 c -3.402,0.609 -3.551,0.729 -1,0.8 1.65,0.047 4.8,-0.288 7,-0.743 3.311,-0.685 3.483,-0.822 1,-0.8 -1.65,0.015 -4.8,0.349 -7,0.743 m -64.5,1.868 c 0.825,0.501 4.425,1.164 8,1.475 5.685,0.494 5.936,0.45 2,-0.352 -8.508,-1.734 -11.576,-2.078 -10,-1.123 m 28.768,-0.143 c 1.797,0.222 4.497,0.218 6,-0.01 1.503,-0.229 0.032,-0.411 -3.268,-0.405 -3.3,0.005 -4.529,0.192 -2.732,0.415 m 18.96,-0.003 c 1.775,0.221 4.925,0.224 7,0.008 2.074,-0.217 0.622,-0.397 -3.228,-0.402 -3.85,-0.004 -5.548,0.173 -3.772,0.394 m 35.135,0.14 2.363,0.664 -4.015,4.138 c -2.209,2.275 -6.085,5.35 -8.614,6.832 -5.723,3.354 -6.015,4.268 -0.458,1.433 4.323,-2.205 12.6938,-10.84777 12.6938,-12.65977 0,-0.577 0.47847,-0.70547 -1.03353,-0.65047 -2.643,0.095 -3.20727,-0.39376 -0.93627,0.24324 m -9.863,1.138 c -3.392,0.714 -3.407,0.738 -0.5,0.769 1.65,0.017 4.125,-0.329 5.5,-0.769 3.279,-1.05 -0.011,-1.05 -5,0 m -45.75,2.728 c 2.063,0.216 5.438,0.216 7.5,0 2.063,-0.215 0.375,-0.392 -3.75,-0.392 -4.125,0 -5.812,0.177 -3.75,0.392 m 25.518,-0.003 c 1.797,0.222 4.497,0.218 6,-0.01 1.503,-0.229 0.032,-0.411 -3.268,-0.405 -3.3,0.005 -4.529,0.192 -2.732,0.415 m -70.731996,10.651 c 1.945,0.754 5.095,1.652 7,1.995 l 3.464,0.623 -3.536,-1.37 c -1.945,-0.754 -5.095,-1.652 -7,-1.995 l -3.464,-0.623 3.536,1.37 m 81.963996,1.616 c -0.825,0.529 -5.22024,2.75572 -9.34524,3.68172 -4.125,0.927 -6.63476,0.82428 -5.99876,1.03928 1.522,0.515 13.099,-2.507 16.318,-4.258 1.389,-0.756 2.076,-1.386 1.526,-1.4 -0.55,-0.013 -1.675,0.408 -2.5,0.937 m -96.499996,2.41 c -30.122,11.102 -46.708,28.39 -44.076,45.94 0.913,6.089 4.389,10.077 10.868,12.466 10.432,3.848 18.229,4.694 42.708,4.635 22.501996,-0.055 24.171996,-0.196 39.324996,-3.315 24.448,-5.031 43.56,-12.1 58.863,-21.77 10.411,-6.579 13.812,-10.994 13.812,-17.93 0,-2.914 -0.43,-6.429 -0.955,-7.811 -1.221,-3.211 -7.699,-10.419 -11.387,-12.672 -2.768,-1.69 -3.006,-1.662 -9.046,1.077 -10.741,4.87 -20.107,6.393 -38.612,6.276 -16.521,-0.103 -30.796,-2.175 -46.499996,-6.749 -8.343,-2.429 -8.796,-2.434 -15,-0.147 m 27.999996,-0.402 c 1.65,0.42 3.9,0.785 5,0.811 l 2,0.048 -2,-0.859 c -1.1,-0.473 -3.35,-0.838 -5,-0.811 l -2.999996,0.048 2.999996,0.763 m 16.077,21.549 c -0.766,3.051 1.352,7.951 3.436,7.951 0.942,0 1.601,-1.175 1.797,-3.204 0.588,-6.075 -3.882,-10.13 -5.233,-4.747 m -22.909996,2.118 c -1.438,1.437 -0.606,7.078 1.298,8.801 1.899,1.719 2.005,1.692 3.14,-0.799 1.936996,-4.252 -1.676,-10.765 -4.438,-8.002 m 94.273996,13.656 c -11.503,8.805 -31.561,17.595 -51.441,22.541 -39.763996,9.892 -68.599996,10.332 -100.249996,1.529 -2.139,-0.595 -2.25,-0.351 -2.25,4.944 v 5.569 l 4.75,2.118 c 3.774,1.682 5.833,1.984 10.021,1.472 3.986,-0.488 7.102,-0.102 12.78,1.584 6.969,2.069 8.009,2.135 14.438,0.922 4.494,-0.848 10.078,-1.084 15.89,-0.671 6.935996,0.492 11.069996,0.196 18.290996,-1.309 5.132,-1.069 13.605,-2.251 18.83,-2.625 7.987,-0.573 10.546,-1.212 16.063,-4.012 3.61,-1.832 9.46,-4.059 13,-4.949 3.54,-0.889 8.314,-2.7 10.609,-4.023 2.294,-1.323 7.899,-3.78 12.455,-5.46 6.669,-2.459 9.121,-3.966 12.579,-7.732 4.277,-4.659 5.125,-6.589 3.371,-7.673 -0.508,-0.314 -1.219,-1.916 -1.58,-3.559 -0.361,-1.644 -0.958,-2.974 -1.326,-2.955 -0.369,0.018 -3.173,1.948 -6.23,4.289 m -70.44,4.087 c -4.696,6.156 -12.54,8.193 -13.988,3.631 -0.694,-2.188 -3.183,-3.383 -4.067,-1.953 -0.34,0.55 0.119,2.126 1.021,3.502 3.877,5.917 11.299,5.644 17.589,-0.646 3.631,-3.631 5.257,-7.944 2.995,-7.944 -0.522,0 -2.12,1.534 -3.55,3.41 m 78.815,8.209 c -0.342,0.89 -2.666,2.915 -5.164,4.5 -4.836,3.067 -4.944,3.859 -0.191,1.401 1.574,-0.814 3.808,-2.683 4.965,-4.153 1.156,-1.47 2.397,-2.377 2.759,-2.016 0.851,0.852 -3.343,5.392 -7.185,7.778 -1.65,1.025 -2.5,1.865 -1.888,1.867 2.002,0.007 10.38,-7.453 10.384,-9.246 0.005,-2.202 -2.846,-2.303 -3.68,-0.131 m -20.816,10.965 c -3.85,1.965 -7.45,4.058 -8,4.651 -0.55,0.592 1.25,-0.172 4,-1.699 2.75,-1.526 7.25,-3.605 10,-4.619 2.75,-1.015 4.1,-1.859 3,-1.876 -1.1,-0.017 -5.15,1.577 -9,3.543 m 20.931,-1.472 c -0.378,0.611 -2.992,2.207 -5.809,3.546 -2.817,1.339 -7.32,3.996 -10.007,5.903 -2.687,1.908 -6.062,3.71 -7.5,4.004 -1.438,0.294 -5.511,1.9 -9.052,3.568 -3.54,1.668 -10.259,3.7 -14.93,4.515 -4.672,0.815 -11.165,2.568 -14.429,3.894 -9.386,3.814 -16.227,4.572 -43.060996,4.771 -28.116,0.209 -41.858,-0.733 -48.893,-3.352 l -4.75,-1.769 v 4.282 c 0,2.354 0.573,4.757 1.273,5.338 1.515,1.257 18.797,4.728 30.701,6.165 28.174,3.402 66.588996,-2.343 92.800996,-13.878 20.851,-9.176 38.225,-19.627 38.225,-22.995 0,-4.388 -2.808,-6.842 -4.569,-3.992 m -15.043,4.015 c -2.139,1.719 -5.238,3.727 -6.888,4.46 -1.702,0.758 -2.276,1.352 -1.327,1.374 1.39,0.032 8.666,-4.76 12.277,-8.086 2.379,-2.191 -0.572,-0.556 -4.062,2.252 m -25.388,5.041 c -1.925,0.544 -3.903,1.379 -4.396,1.856 -0.493,0.478 1.089,0.271 3.515,-0.459 2.426,-0.73 5.304,-1.554 6.396,-1.83 l 1.985,-0.503 -2,-0.026 c -1.1,-0.014 -3.575,0.419 -5.5,0.962 m 36,6.998 c -15.385,9.637 -37.362,18.709 -57.579,23.768 -25.082,6.276 -61.238996,6.734 -85.710996,1.086 -8.879,-2.049 -9.595,-1.12 -3.96,5.14 13.463,14.956 39.527,20.788 73.109996,16.358 36.285,-4.785 63.028,-17.12 75.456,-34.801 3.61,-5.136 7.684,-13.215 7.684,-15.237 0,-1.282 -3.092,-0.015 -9,3.686 m -77.5,3.354 c -3.3,0.743 -6.637,1.38 -7.417,1.416 -0.779,0.035 -1.141,0.34 -0.804,0.677 0.337,0.337 3,0.035 5.917,-0.67 2.917,-0.706 9.354,-1.589 14.304,-1.962 l 9,-0.68 -7.5,-0.067 c -4.125,-0.036 -10.2,0.542 -13.5,1.286 m 17.5,2.529 c -2.475,1.013 -3.825,1.855 -3,1.87 0.825,0.016 3.3,-0.823 5.5,-1.864 5.108,-2.418 3.402,-2.421 -2.5,-0.006 m -70.499996,0.416 c 3.108,1.497 13.13,1.86 17.5,0.634 1.406,-0.394 -1.437,-0.679 -6.5,-0.65 -4.95,0.028 -10.125,-0.282 -11.5,-0.689 -1.891,-0.56 -1.769,-0.388 0.5,0.705 m 34.25,0.258 c 1.787,0.222 4.712996,0.222 6.499996,0 1.787,-0.221 0.325,-0.403 -3.25,-0.403 -3.574996,0 -5.036996,0.182 -3.249996,0.403 m -29.25,4.35 c 1.65,0.38 8.175,0.691 14.5,0.693 14.696,0.003 12.307,-0.535 -4.5,-1.013 -7.15,-0.204 -11.65,-0.06 -10,0.32 m 32.249996,-0.333 c 3.438,0.196 9.063,0.196 12.5,0 3.438,-0.195 0.625,-0.355 -6.25,-0.355 -6.874996,0 -9.686996,0.16 -6.25,0.355"
     stroke="none"
     fill="#26548a"
     fill-rule="evenodd"
     id="path3"
     sodipodi:nodetypes="ccccsccccccccscccsccccccccccssscccccscccccccscscccccccccscccccccccccsccscsccscccsccccccccccccsccscccscccccccccccccsccccccscsccsccscccccccccccccsccccscccccscccccccsccccccccsccccccssccsccccccccccsssccccscccccccccccccssccccccccssccccccsccccccscccccccscccccccscccccscccscccccccccscccccccccccccccccccccccsccccccccsccccccccccccccccccccccccsccccccccccccccsccccccccsscccccccccccccscccccscsscccsccccscccccsccscsccccccscccsccccccccscccccccccsscccsccccccccccccccccscccccccsc" />
  <path
     d="m 75.638564,61.035279 c -11.703,1.724 -24.21,7.44 -30.735,14.046 -6.26,6.337 -8.522,11.764 -9.33,22.381 -0.419,5.516001 -1.724,12.074001 -3.362,16.897001 -1.472,4.335 -2.572,9.285 -2.444,11 0.331,4.448 -2.01378,10.43969 -2.306,11.618 -0.27125,1.09375 -0.265,1.0445 -0.247,2.75 0.361,1.512 0.668,4.419 0.834,6.458 0.167,2.04 0.88053,3.91301 1.27322,5.01172 0.63076,1.83933 0.50979,1.62183 1.04078,2.91928 0.92897,2.49575 3.72332,7.88485 4.35,8.861 0.42244,0.65801 0.40057,0.63081 0.953,1.5 0.44253,0.69627 0.8717,1.09638 1.20669,1.53259 0.6241,0.81269 0.0512,0.0947 0.82456,0.98028 0.85909,0.98367 5.98256,6.11091 6.93475,6.98713 1.2565,1.15625 0.20242,0.15775 1.034,0.974 1.53657,1.50823 1.13918,1.18786 2.73544,2.69244 2.79566,2.45016 3.4669,2.88692 6.27344,4.87331 2.58662,1.97687 6.22412,4.65025 9.69012,6.16025 3.465,1.51 6.295,2.982 6.288,3.273 -0.007,0.29 -3.522,2.001 -7.81,3.802 -10.253,4.307 -18.031,9.517 -25.839,17.31 -12.17,12.144 -14.711,22.975 -9.012,38.415 1.881,5.097 3.257,17.5 1.941,17.5 -3.113,0 -17.286,-12.203 -19.785,-17.035 -1.8889997,-3.652 -2.5229997,-13.672 -1.0409997,-16.452 0.582,-1.094 2.2749997,-3.533 3.7619997,-5.422 1.487,-1.888 2.47,-3.81 2.185,-4.272 -0.285,-0.461 1.316,-4.16 3.557,-8.22 3.943,-7.142 4.439,-10.599 1.521,-10.599 -0.727,0 -2.235,1.163 -3.353,2.584 l -2.033,2.584 -0.623,-2.834 c -1.085,-4.928 -1.348,-5.334 -3.457,-5.334 -2.7319997,0 -3.2059997,1.575 -2.1599997,7.172 0.958,5.127 -0.592,5.862 -2.683,1.273 -1.105,-2.426 -4.487,-3.337 -5.61500005,-1.514 -1.163,1.882 2.78100005,7.927 6.35600005,9.741 1.981,1.006 3.7829997,1.934 4.0039997,2.063 0.22,0.129 -1.2709997,2.754 -3.3159997,5.833 -3.098,4.666 -3.812,6.745 -4.294,12.495 -0.76,9.06 1.26,14.394 8.0089997,21.142 5.379,5.38 16.049,12.795 18.41,12.795 2.226,0 5.284,8.119 5.054,13.414 -0.113,2.583 0.281,5.009 0.876,5.391 0.594,0.382 1.841,2.181 2.772,3.996 0.93,1.816 1.843,2.927 3.139,3.857 1.76575,2.14975 0.41675,0.5325 1.448,1.753 0.96359,1.14042 5.93823,5.82856 7.714,7.589 0.82412,0.81701 1.90181,1.39559 2.3905,1.78125 2.1115,1.20475 6.16739,3.59502 12.61921,5.82843 1.85419,0.79475 6.30019,2.06179 10.90651,3.08479 6.57475,1.67325 9.60278,2.29453 19.56978,2.23253 13.076996,-0.082 30.065226,-2.33949 31.211606,-2.47186 0.46875,-0.0541 1.38526,-0.25859 2.72901,-0.46559 1.35938,-0.22362 2.971,-0.50496 3.67309,-0.64394 0.65407,-0.12947 1.76332,-0.26269 3.35107,-0.50506 4.7881,-0.98737 26.66819,-7.70719 36.02219,-12.57419 15.268,-7.943 24.88103,-17.65736 31.10503,-30.26636 2.856,-5.788 3.194,-7.377 3.084,-14.5 -0.234,-15.172 -1.841,-26.698 -4.236,-30.387 -1.02,-1.571 -1.765,-6.039 -2.179,-13.061 -0.54,-9.159 -1.036,-11.419 -3.494,-15.936 -1.576,-2.895 -4.566,-6.611 -6.646,-8.257 l -3.78,-2.995 5.106,-5.106 c 5.763,-5.764 9.829,-13.531 9.843,-18.808 0.006,-1.952 0.539,-4.079 1.186,-4.726 1.421,-1.421 2.852,-9.38 3.276,-18.224 0.194,-4.064 1.166,-8.374 2.592,-11.5 1.426,-3.126 2.455,-7.691 2.745,-12.18 0.416,-6.429 0.152,-7.841 -2.523,-13.5 -10.249,-21.681001 -46.934,-40.747001 -89.244,-46.380001 -11.301,-1.505 -35.030996,-1.71 -44.048996,-0.382 m -0.473,5.439 c -20.002,3.764 -32.386,13.099 -34.116,25.715 -1.239,9.042001 1.587,13.230001 14.602,21.637001 26.636,17.205 67.019996,28.151 103.856996,28.151 10.783,0 17.918,-0.549 25.013,-1.924 12.964,-2.513 17.335,-4.773 20.039,-10.358 5.683,-11.74 10e-4,-25.586 -15.126,-36.863001 -23.398,-17.442 -59.986,-27.988 -96.268996,-27.747 -6.05,0.04 -14.15,0.665 -18,1.389 m 29.784786,32.3661 c -1.235,3.248001 2.05437,4.690311 3.33137,6.595311 0.857,1.28 3.32793,1.04351 5.01693,-0.97149 1.089,-1.298 2.09048,-4.499821 2.09048,-5.493821 0,-5.155 -5.99655,-8.84413 -7.65455,-4.48313 m 20.27752,9.313861 c -2.021,2.436 -0.01,6.69313 1.58939,8.76413 l 4.85957,-0.67375 2.8624,-1.36129 c 1.713,-2.219 1.99076,-12.149751 0.23276,-12.725751 -0.73758,-0.81672 -8.46898,0.55888 -9.05798,1.26788 m -88.487676,9.591951 c -0.352,0.997 -1.273,3.388 -2.047,5.313 l -1.407,3.5 4.496,4.25 c 2.473,2.338 5.368,4.25 6.433,4.25 3.199,0 8.6,2.674 13.251,6.559 5.103,4.264 7.428,5.277 14.929,6.508 3.025,0.496 9.1,2.677 13.5,4.846 4.4,2.169 10.25,4.244 12.999996,4.611 6.256,0.834 14.738,2.898 24.731,6.018 6.821,2.129 8.588,2.309 15,1.524 3.998,-0.489 9.515,-0.534 12.259,-0.1 2.745,0.434 11.745,0.55 20,0.258 13.591,-0.482 15.59,-0.793 21.148,-3.286 l 6.137,-2.753 -0.52,-4.843 c -0.287,-2.663 -0.663,-5.007 -0.837,-5.208 -0.174,-0.201 -1.801,0.153 -3.617,0.786 -11.54,4.025 -41.186,5.299 -61.367,2.637 -14.474,-1.909 -32.583,-5.876 -43.826996,-9.602 -12.393,-4.106 -31.497,-13.583 -40.702,-20.192 -10.21,-7.331 -9.828,-7.147 -10.56,-5.076 m 85.654996,12.434 c -4.131,2.214 -7.067,2.302 -12.487,0.372 -4.71,-1.678 -6.431,-0.634 -3.432,2.081 1.693,1.532 3.99118,2.59733 9.80918,2.59733 6.341,0 7.71503,-0.86827 9.92603,-2.94427 1.402,-1.318 2.37303,-3.02412 1.59379,-3.37206 -0.684,-1.107 -1.212,-0.984 -5.41,1.266 m -83.416996,8.745 c -0.824,1.333 2.172,3.532 10.917,8.015 4.4,2.255 9.575,5.006 11.5,6.113 3.55,2.041 20.305,8.446 38.499996,14.719 8.513,2.934 12.008,3.568 23.5,4.262 7.425,0.448 14.767,1.312 16.315,1.92 4.329,1.699 28.553,1.416 33.685,-0.395 2.338,-0.825 6.211,-1.5 8.605,-1.5 7.437,0 16.998,-4.797 14.514,-7.281 -0.519,-0.519 -2.291,-0.14 -4.254,0.908 -3.68,1.966 -11.064,2.362 -46.365,2.488 -18.011,0.064 -19.416,-0.071 -27,-2.598 -4.4,-1.467 -11.895,-3.268 -16.656,-4.004 -6.137996,-0.948 -10.790996,-2.423 -15.999996,-5.072 -4.386,-2.231 -10.338,-4.272 -14.778,-5.069 -5.643,-1.012 -8.734,-2.241 -12.832,-5.102 -10.61,-7.408 -17.941,-10.17 -19.651,-7.404 m -8.057,4.084 c -0.839,1.623 -1.526,3.656 -1.526,4.519 0,3.697 30.14,20.78 49.283,27.933 31.482996,11.764 71.969996,14.859 104.059996,7.956 8.52,-1.833 10.657,-3.215 10.657,-6.892 0,-2.339 -0.145,-2.379 -6.75,-1.841 -3.712,0.303 -9,1.159 -11.75,1.902 -6.74,1.82 -29.968,1.768 -38.791,-0.088 -3.762,-0.792 -10.713,-1.439 -15.447,-1.439 -7.821,0 -10.12,-0.513 -25.183996,-5.619 -9.118,-3.091 -19.758,-6.878 -23.645,-8.417 -11.339,-4.489 -32.796,-15.657 -35.394,-18.422 -3.041,-3.238 -3.651,-3.193 -5.513,0.408 m -1.083,12.339 c -0.824,2.147 4.59,13.385 9.294,19.295 14.999,18.842 51.763,32.654 90.769996,34.102 12.821,0.476 17.696,0.258 24.5,-1.093 9.347,-1.857 21.082,-6.911 27.084,-11.665 4.133,-3.274 8.462,-8.708 7.613,-9.557 -0.282,-0.283 -6.294,0.488 -13.359,1.713 -10.13,1.755 -16.544,2.213 -30.345,2.162 -41.136,-0.15 -76.146996,-10.897 -111.744996,-34.302 -2.719,-1.788 -3.337,-1.894 -3.812,-0.655 m 41.057,50.113 c -30.122,11.102 -46.708,28.39 -44.076,45.94 0.913,6.089 4.389,10.077 10.868,12.466 10.432,3.848 18.229,4.694 42.708,4.635 22.501996,-0.055 24.171996,-0.196 39.324996,-3.315 24.448,-5.031 43.56,-12.1 58.863,-21.77 10.411,-6.579 13.812,-10.994 13.812,-17.93 0,-2.914 -0.43,-6.429 -0.955,-7.811 -1.221,-3.211 -7.699,-10.419 -11.387,-12.672 -2.768,-1.69 -3.006,-1.662 -9.046,1.077 -10.741,4.87 -20.107,6.393 -38.612,6.276 -16.521,-0.103 -30.796,-2.175 -46.499996,-6.749 -8.343,-2.429 -8.796,-2.434 -15,-0.147 m 44.076996,21.147 c -0.766,3.051 1.352,7.951 3.436,7.951 0.942,0 1.601,-1.175 1.797,-3.204 0.588,-6.075 -3.882,-10.13 -5.233,-4.747 m -22.909996,2.118 c -1.438,1.437 -0.606,7.078 1.298,8.801 1.899,1.719 2.005,1.692 3.14,-0.799 1.936996,-4.252 -1.676,-10.765 -4.438,-8.002 m 94.273996,13.656 c -11.503,8.805 -31.561,17.595 -51.441,22.541 -39.763996,9.892 -68.599996,10.332 -100.249996,1.529 -2.139,-0.595 -2.25,-0.351 -2.25,4.944 v 5.569 l 4.75,2.118 c 3.774,1.682 5.833,1.984 10.021,1.472 3.986,-0.488 7.102,-0.102 12.78,1.584 6.969,2.069 8.009,2.135 14.438,0.922 4.494,-0.848 10.078,-1.084 15.89,-0.671 6.935996,0.492 11.069996,0.196 18.290996,-1.309 5.132,-1.069 13.605,-2.251 18.83,-2.625 7.987,-0.573 10.546,-1.212 16.063,-4.012 3.61,-1.832 9.46,-4.059 13,-4.949 3.54,-0.889 8.314,-2.7 10.609,-4.023 2.294,-1.323 7.899,-3.78 12.455,-5.46 6.669,-2.459 9.121,-3.966 12.579,-7.732 4.277,-4.659 5.125,-6.589 3.371,-7.673 -0.508,-0.314 -1.219,-1.916 -1.58,-3.559 -0.361,-1.644 -0.958,-2.974 -1.326,-2.955 -0.369,0.018 -3.173,1.948 -6.23,4.289 m -70.44,4.087 c -4.696,6.156 -12.54,8.193 -13.988,3.631 -0.694,-2.188 -3.183,-3.383 -4.067,-1.953 -0.34,0.55 0.119,2.126 1.021,3.502 3.877,5.917 11.299,5.644 17.589,-0.646 3.631,-3.631 5.257,-7.944 2.995,-7.944 -0.522,0 -2.12,1.534 -3.55,3.41 m 78.218,8.896 c -1.596,2.437 -7.559,5.675 -14.219,7.723 -2.2,0.676 -6.638,2.762 -9.863,4.635 -3.224,1.873 -8.174,3.892 -11,4.488 -2.825,0.595 -8.83,2.885 -13.345,5.088 -7.522,3.671 -9.151,4.071 -19.5,4.786 -6.21,0.429 -14.171,1.528 -17.689,2.442 -4.508,1.172 -9.676,1.589 -17.499996,1.414 -6.107,-0.138 -14.536,0.119 -18.732,0.569 -6.066,0.652 -8.612,0.484 -12.428,-0.816 -5.481,-1.867 -12.057,-2.112 -16.041,-0.598 -4.498,1.71 -1.508,3.055 10.255,4.614 18.164,2.406 23.033,2.565 45.342996,1.481 21.582,-1.048 26.648,-1.93 37.043,-6.446 1.949,-0.847 6.449,-1.86 10,-2.252 3.909,-0.431 9.29,-2.012 13.636,-4.007 3.948,-1.811 8.789,-3.738 10.758,-4.282 1.969,-0.544 6.321,-3.049 9.671,-5.567 3.35,-2.518 6.659,-4.578 7.353,-4.578 2.12,0 10.531,-7.385 10.535,-9.25 0.006,-2.49 -2.494,-2.166 -4.277,0.556 m 0.712,8.806 c -0.378,0.611 -2.992,2.207 -5.809,3.546 -2.817,1.339 -7.32,3.996 -10.007,5.903 -2.687,1.908 -6.062,3.71 -7.5,4.004 -1.438,0.294 -5.511,1.9 -9.052,3.568 -3.54,1.668 -10.259,3.7 -14.93,4.515 -4.672,0.815 -11.165,2.568 -14.429,3.894 -9.386,3.814 -16.227,4.572 -43.060996,4.771 -28.116,0.209 -41.858,-0.733 -48.893,-3.352 l -4.75,-1.769 v 4.282 c 0,2.354 0.573,4.757 1.273,5.338 1.515,1.257 18.797,4.728 30.701,6.165 28.174,3.402 66.588996,-2.343 92.800996,-13.878 20.851,-9.176 38.225,-19.627 38.225,-22.995 0,-4.388 -2.808,-6.842 -4.569,-3.992 m -4.431,16.054 c -15.385,9.637 -37.362,18.709 -57.579,23.768 -25.082,6.276 -61.238996,6.734 -85.710996,1.086 -8.879,-2.049 -9.595,-1.12 -3.96,5.14 13.463,14.956 39.527,20.788 73.109996,16.358 36.285,-4.785 63.028,-17.12 75.456,-34.801 3.61,-5.136 7.684,-13.215 7.684,-15.237 0,-1.282 -3.092,-0.015 -9,3.686"
     stroke="none"
     fill="#000000"
     fill-rule="evenodd"
     id="path2"
     sodipodi:nodetypes="cccccsccccsssssscccscccscccccssccsccccccccsccccssccccscsccccsscccccscscccccccsccccccccscccccccccccsccsccccccccsccccccccscccccccccssscccccccccsscscccsccccccscccccccccccccscccccccsccccccccsscccccccccccccscccccscssccccccsccccccccccssscccscsccccccscccsccccccssc" />
  <path
     d="m 495.84456,1.6592793 c -2.048,1.009 -4.448,3.587 -6.264,6.727 -6.267,10.8399997 -14.354,42.8839997 -18.824,74.5909997 -2.675,18.976001 -3.046,21.929001 -3.584,28.500001 -0.315,3.85 -0.766,8.125 -1.002,9.5 -0.236,1.375 -0.694,6.55 -1.017,11.5 -0.324,4.95 -1.012,13.95 -1.529,20 -1.507,17.598 -1.206,54.742 0.514,63.5 3.235,16.479 7.958,26.424 16.705,35.175 23.42,23.432 71.644,18.299 81.746,-8.701 2.424,-6.48 2.576,-9.341 0.731,-13.756 -2.415,-5.778 -3.827,-6.199 -9.252,-2.759 -4.019,2.549 -5.802,3.041 -11.022,3.041 -5.176,0 -6.727,-0.42 -9.185,-2.488 -6.503,-5.473 -8.984,-15.536 -9.861,-40.012 -0.681,-18.983 1.226,-63.738 3.174,-74.5 0.249,-1.375 0.728,-4.75 1.065,-7.5 1.143,-9.325001 3.212,-15.971001 8.717,-28.000001 10.391,-22.706 15.499,-41.054 13.473,-48.394 -3.947,-14.294 -26.268,-28.15499972 -45.224,-28.08299971696 -3.529,0.012999997 -7.42,0.70299999696 -9.361,1.65900001696 m -147.042,20.4479997 c -38.835,3.19 -72.283,23.519 -82.875,50.37 -2.433,6.169 -2.758,8.306 -2.733,18 0.032,12.184001 1.424,17.595001 6.613,25.707001 4.797,7.498 14.659,16.002 24.224,20.888 4.744,2.423 8.627,4.859 8.629,5.414 0.003,0.555 -2.858,2.036 -6.357,3.29 -14.89,5.341 -30.44,16.984 -37.615,28.165 -5.218,8.132 -7.255,15.4 -7.298,26.036 -0.076,19.268 8.665,35.425 25.633,47.381 18.238,12.851 48.214,19.925 77.183,18.214 11.215,-0.662 12.711,-0.84 22.459,-2.678 25.77,-4.86 48.687,-19.459 57.852,-36.855 4.332,-8.222 5.534,-15.057 3.528,-20.07 -1.536,-3.839 -6.433,-8.992 -8.545,-8.992 -0.557,0 -3.335,2.04 -6.174,4.532 -17.887,15.708 -53.731,23.215 -78.484,16.439 -13.055,-3.574 -20.513,-8.956 -24.311,-17.541 -6.595,-14.91 -0.27,-28.351 17.325,-36.813 8.721,-4.195 9.577,-4.277 17.23,-1.644 13.65,4.696 29.344,7.316 35.517,5.93 11.754,-2.641 21.502,-14.768 21.389,-26.611 -0.084,-8.828 -4.215,-16.303 -11.583,-20.954 -3.485,-2.2 -5.183,-2.573 -11.373,-2.501 -7.536,0.088 -22.229,3.459 -30.468,6.99 -4.34,1.861 -4.663,1.868 -8.105,0.194 -17.531,-8.527 -25.108,-24.379 -18.411,-38.521001 2.874,-6.068 7.418,-10.515 14.211,-13.907 21.31,-10.641 51.992,-5.699 70.625,11.374 7.555,6.923 8.021,6.936 13.784,0.372 5.145,-5.859 7.361,-11.796 7.406,-19.839 0.03,-5.425 -0.478,-7.979 -2.258,-11.349 -6.894,-13.055 -22.797,-23.334 -44.155,-28.541 -6.13,-1.495 -26.142,-3.771 -30.5,-3.47 -1.1,0.076 -6.663,0.521 -12.363,0.99 m -266.406866,43.3677 c -25.955,2.394 -41.87361,13.99 -41.87361,29.606 0,5.971001 2.85973,11.349571 13.00273,17.935571 12.64869,8.36488 30.61384,16.04521 45.32384,19.96621 2.474996,0.659 5.827206,1.79512 6.927206,2.22412 2.632,1.029 10.52715,2.83615 25.75915,5.34615 12.732,2.097 37.28976,1.89249 46.55776,0.52749 15.18418,-1.20652 23.15381,-4.93739 26.24336,-10.45127 8.13,-13.763 -1.5596,-32.615331 -26.6213,-45.661271 -9.667,-5.91033 -35.19087,-14.80239 -43.53887,-15.96639 -2.327,-0.325 -4.92879,-0.62482 -6.30379,-1.11382 -1.375,-0.489 -5.03603,-1.102 -8.06103,-1.361 -3.025,-0.26 -6.60955,-0.43385 -9.08455,-0.75885 -7.108,-0.934 -19.487296,-0.93491 -27.110296,-0.23191 m 24.606266,29.66427 c -1.887,2.694 -2.012,6.772001 -0.281,9.140001 1.909,2.611 4.542,1.026 5.751,-3.462 1.78,-6.610001 -2.04,-10.576001 -5.47,-5.678001 m 24.229,4.527 c -3.206,3.680001 -2.74,11.250001 0.692,11.250001 3.806,0 6.37276,-10.95445 3.38194,-12.557621 -1.87803,-0.89586 -2.47157,-0.74906 -4.07394,1.30762 m -94.446656,14.069541 -1.61594,3.58846 4.76236,4.71145 c 2.217,2.088 5.15819,3.89269 6.19019,3.89269 3.125,0 7.60253,2.18032 13.0079,6.15019 5.675,4.741 6.95222,5.98568 13.32034,6.66518 3.08113,0.5925 1.92604,0.64726 6.74,1.5855 9.38125,4.17475 17.73014,7.63107 22.421716,8.25832 5.24063,0.70065 10.78994,1.93021 20.57821,4.79806 3.85,1.322 9.39118,3.10933 11.86618,3.15233 10.62794,-1.09763 21.27282,-0.15315 37.27667,-0.23406 14.328,-0.233 19.40782,-0.91772 22.26479,-3.17111 2.44124,-0.55179 5.59157,-2.60373 6.37557,-2.82973 0.936,-0.27 0.90567,-2.18209 -8.6e-4,-5.113 -0.25707,-1.61325 -0.38793,-4.83914 -1.16316,-5.17579 l -0.0672,-0.0164 c -1.22647,-0.20785 -6.94637,1.88937 -9.24945,2.36827 -8.77854,1.03312 -36.43458,3.07746 -51.42461,1.5887 -44.564746,-7.04167 -69.517566,-15.84333 -96.825566,-36.07933 -1.945,-1.441 -2.06348,-0.71958 -3.71848,3.74742 m 86.921996,9.42131 c -4.134,2.207 -7.071,2.293 -12.487,0.365 -4.68,-1.667 -6.437,-0.639 -3.48,2.037 3.111,2.815 13.373,3.193 17.967,0.661 3.338,-1.839 4.635,-4.293 2.5,-4.728 -0.55,-0.112 -2.575,0.637 -4.5,1.665 m -92.321146,14.60316 c -0.639,1.401 -0.74589,2.25243 -0.73789,2.91443 0.28763,2.726 18.11442,13.44751 30.38642,19.52051 13.566,6.714 24.64269,11.51425 40.258926,14.70369 2.19723,0.44876 6.68155,1.44762 9.43155,2.03962 16.236,3.492 44.46845,4.29031 62.06845,1.64031 17.09,-2.574 21.46898,-3.63965 22.12203,-8.23248 0.78199,-5.49967 -3.23399,-3.1102 -8.75299,-2.6632 -3.437,0.279 -8.98392,1.28486 -12.00892,2.01686 -7.72203,0.82122 -30.9486,0.28743 -35.44177,-0.001 -2.00985,-1.61071 -8.13145,-1.403 -15.28145,-1.84 -10.73883,-0.004 -12.53883,-1.30677 -24.07049,-4.58061 -28.040996,-9.479 -56.548716,-22.78331 -61.684716,-28.25031 -2.896,-3.083 -4.2321,-1.95298 -5.6701,1.20302 m -0.95094,12.40869 c 10e-4,3.69314 4.10504,11.3295 6.78304,15.2705 8.89312,13.96263 20.565,20.17908 34.87,25.97108 9.385,3.799 28.571916,9.45383 39.636896,10.30783 1.65,0.178 7.77441,0.94362 12.44941,1.48962 7.474,0.44045 20.1061,0.60442 26.39365,-0.21865 6.2578,-0.74031 12.58156,-2.70086 16.55056,-4.13586 11.41756,-3.15219 28.38472,-18.72093 22.16663,-18.03992 l -1.60522,0.1758 -1.8665,0.12002 c -15.87975,2.54273 -26.07531,3.36004 -38.6644,3.63016 -13.64,-0.48975 -35.00009,-2.23703 -41.76064,-3.92239 -0.45991,-0.24088 -7.55678,-1.76143 -10.856776,-2.64243 -19.48772,-5.8305 -38.1075,-13.97732 -52.90661,-23.20593 -9.087,-6.008 -10.72083,-6.94841 -11.08434,-5.17053 M 299.66556,336.47728 v 33.5 h 19 19 v -3.5 -3.5 h -14.5 -14.5 v -30 -30 h -4.5 -4.5 v 33.5 m 126,0 v 33.5 h 4.5 4.5 v -14.5 -14.5 h 13.5 13.5 v -3.5 -3.5 h -13.5 -13.5 v -12 -12 h 14.5 14.5 v -3.5 -3.5 h -19 -19 v 33.5 m -71,-15.64 c -3.98,1.55 -4.476,2.082 -4.29,4.606 0.314,4.264 1.267,4.591 7.29,2.504 6.656,-2.305 9.03,-2.402 13.463,-0.55 2.619,1.095 3.643,2.299 4.462,5.25 2.017,7.262 2.202,7.11 -9.175,7.489 -15.389,0.512 -21.531,4.504 -22.503,14.626 -0.969,10.085 5.135,16.215 16.148,16.215 6.55,0 10.172,-1.237 13.825,-4.722 2.879,-2.746 2.661,-2.86 4.249,2.222 0.303,0.972 1.747,1.5 4.104,1.5 h 3.636 l -0.408,-19.75 c -0.476,-23.036 -1.23,-25.897 -7.686,-29.191 -5.184,-2.645 -16.579,-2.743 -23.115,-0.199 m 134.411,0.031 c -1.698,1.036 -4.005,3.049 -5.126,4.473 l -2.037,2.59 -0.636,-3.977 c -0.6,-3.754 -0.831,-3.977 -4.124,-3.977 h -3.488 v 25 25 h 4.5 4.5 v -16.04 c 0,-14.092 0.244,-16.518 2.01,-19.979 2.498,-4.896 6.983,-7.335 13.24,-7.198 3.833,0.084 4.753,-0.223 4.764,-1.59 0.007,-0.931 0.285,-2.705 0.616,-3.943 0.576,-2.146 0.333,-2.25 -5.263,-2.246 -3.981,0.002 -6.86,0.609 -8.956,1.887 m 28.589,-0.031 c -3.98,1.55 -4.476,2.082 -4.29,4.606 0.314,4.264 1.267,4.591 7.29,2.504 6.656,-2.305 9.03,-2.402 13.463,-0.55 2.619,1.095 3.643,2.299 4.462,5.25 2.017,7.262 2.202,7.11 -9.175,7.489 -15.389,0.512 -21.531,4.504 -22.503,14.626 -0.969,10.085 5.135,16.215 16.148,16.215 6.55,0 10.172,-1.237 13.825,-4.722 2.879,-2.746 2.661,-2.86 4.249,2.222 0.303,0.972 1.747,1.5 4.104,1.5 h 3.636 l -0.408,-19.75 c -0.476,-23.036 -1.23,-25.897 -7.686,-29.191 -5.184,-2.645 -16.579,-2.743 -23.115,-0.199 m 62,-0.739 c -1.375,0.546 -3.676,2.118 -5.114,3.493 l -2.613,2.499 -0.612,-3.056 c -0.543,-2.715 -1.005,-3.057 -4.136,-3.057 h -3.525 v 25 25 h 4.5 4.5 l 0.002,-16.75 c 10e-4,-13.943 0.294,-17.336 1.75,-20.25 3.595,-7.198 14.548,-9.152 20.116,-3.589 l 2.632,2.63 0.311,18.979 0.31,18.98 h 4.513 4.513 l -0.323,-20.25 c -0.37,-23.103 -0.978,-25.194 -8.368,-28.771 -4.462,-2.16 -14.059,-2.606 -18.456,-0.858 m 53.685,-0.104 c -4.406,1.322 -9.493,5.706 -11.944,10.291 -1.913,3.578 -2.241,5.73 -2.241,14.692 0,8.914 0.333,11.123 2.206,14.624 2.681,5.013 7.005,8.796 11.9,10.411 4.512,1.489 18.662,0.817 20.838,-0.989 0.865,-0.717 1.556,-2.844 1.556,-4.785 0,-3.172 -0.208,-3.427 -2.25,-2.769 -1.237,0.398 -4.725,1.186 -7.75,1.751 -12.643,2.359 -19.561,-6.59 -17.549,-22.699 0.899,-7.19 3.982,-11.649 9.347,-13.519 3.756,-1.308 4.903,-1.299 10.181,0.076 l 5.947,1.549 1.037,-2.974 c 0.57,-1.636 1.037,-3.313 1.037,-3.727 0,-2.517 -15.806,-3.886 -22.315,-1.932 m 42.519,1.111 c -7.892,3.906 -12.204,12.489 -12.204,24.288 0,11.529 3.92,18.87 12.309,23.051 4.22,2.103 6.451,2.523 13.137,2.477 4.43,-0.031 9.629,-0.594 11.554,-1.25 3.065,-1.046 3.539,-1.66 3.81,-4.944 0.171,-2.062 0.081,-3.75 -0.201,-3.75 -0.281,0 -3.103,0.675 -6.27,1.5 -7.364,1.918 -11.315,1.894 -16.3,-0.101 -4.477,-1.791 -7.501,-5.904 -8.566,-11.649 l -0.696,-3.75 h 17.754 17.754 l -0.627,-5.994 c -1.086,-10.392 -5.449,-17.666 -12.376,-20.629 -4.924,-2.107 -14.028,-1.748 -19.078,0.751 m 4.296,6.714 c -3.967,2.425 -5.091,3.922 -6.315,8.408 l -1.024,3.75 h 12.42 c 11.818,0 12.419,-0.098 12.419,-2.032 0,-9.093 -9.859,-14.798 -17.5,-10.126 m -318.357,19.234 c -5.028,0.988 -6.975,2.353 -8.288,5.807 -2.546,6.695 2.714,11.859 10.84,10.64 5.709,-0.856 10.119,-4.755 11.334,-10.023 1.688,-7.315 1.574,-7.513 -4.279,-7.39 -2.887,0.06 -7.21,0.495 -9.607,0.966 m 163,0 c -5.028,0.988 -6.975,2.353 -8.288,5.807 -2.546,6.695 2.714,11.859 10.84,10.64 5.709,-0.856 10.119,-4.755 11.334,-10.023 1.688,-7.315 1.574,-7.513 -4.279,-7.39 -2.888,0.06 -7.21,0.495 -9.607,0.966"
     stroke="none"
     fill="#e2255c"
     fill-rule="evenodd"
     id="path4"
     sodipodi:nodetypes="ccccscccccccsccscccccccccccccccccccscccccccsccccccccccsccsccccccccsccccccccscccccscccsccccccccccccccccsccccsccsccccccccccccccsccccccccccccccccccccccccccccccccccccccccccccccccsccscsscccccscccccscscccccccccccsccscsscccccsccccccccccccccccccscccscccccccsccsccccsccccccccccccssccccccccccccc" />
  <path
     d="m 42.136544,130.1332 c -0.31287,2.06112 5.72595,4.92795 10.53795,7.40295 4.813,2.476 10.19553,5.23638 12.12053,6.34638 5.66126,3.00093 36.878366,14.81431 46.119366,17.17731 4.292,1.098 11.51117,1.95816 16.16117,1.96516 5.01001,0.30808 7.28462,0.63202 13.1933,1.1999 15.98319,3.41195 30.83538,2.06314 36.59238,0.0321 5.79039,-1.04077 6.56787,-1.50597 9.11187,-1.50897 2.543,-0.004 4.66151,0.0978 9.08473,-1.80209 1.576,-0.822 2.36597,-1.70977 3.12797,-1.70977 0.762,0 2.30273,-1.89661 2.03332,-2.69118 -1.16518,-3.43659 -2.84867,-0.90461 -5.66667,0.60739 -9.16597,1.62992 -11.75159,1.84999 -45.30059,1.87699 -17.689,0.014 -19.58316,-0.29047 -26.86416,-2.66947 -4.302,-1.405 -11.86569,-3.01207 -16.91269,-3.88807 -6.186996,-1.073 -11.699686,-2.98746 -17.092686,-5.60546 -4.401,-2.137 -10.81915,-4.04149 -14.21015,-4.57649 -7.133,-1.125 -9.4989,-3.42037 -16.52608,-7.79951 -5.151,-4.304 -14.19966,-7.49274 -15.408,-4.65297 M 193.64649,249.45575 c -3.09885,1.51228 -3.57662,1.72529 -7.64787,3.56603 -4.04175,1.08363 -9.63639,3.88778 -13.08839,5.77078 -3.451,1.883 -8.57786,3.69506 -11.98586,4.56706 -3.409,0.871 -9.51678,3.57875 -13.35678,5.52975 -6.204,3.151 -8.15761,3.37983 -18.21461,4.15583 -6.226,0.481 -13.91303,1.21458 -18.18478,2.57958 -4.382,1.03 -9.90364,1.365 -17.315636,1.24 -6.222,-0.104 -14.451,0.053 -18.44,0.502 -5.928,0.668 -8.1595,0.62 -11.9315,-0.82 -4.435,-1.694 -16.165,-2.345 -18.8465,-0.161 -2.268,1.402 4.472,3.9405 13.424,4.8065 19.559,1.891 25.87078,1.84908 45.819776,0.92008 19.671,-0.917 21.46313,-1.19539 31.48613,-4.60339 5.755,-1.957 9.77489,-3.77803 16.24431,-5.20191 3.39529,-0.44032 5.16823,-0.26958 11.48233,-3.05742 2.383,-1.215 7.75508,-3.02381 10.80508,-4.07281 3.05,-1.05 7.81501,-3.95539 9.75301,-5.51339 3.33973,-1.63513 3.87769,-3.70107 6.72137,-4.30261 4.56918,-0.96654 13.29878,-9.06304 11.02419,-10.97167 -1.90474,-1.59829 -2.78282,0.35418 -5.82582,3.60818"
     stroke="none"
     fill="#f4f2ef"
     fill-rule="evenodd"
     id="path1"
     sodipodi:nodetypes="cccccccccssccccccccccccccccccccccccccssc" />
</svg>
